<svg xmlns="http://www.w3.org/2000/svg" data-name="Layer 1" viewBox="0 0 130 130"><circle cx="65" cy="65" r="64" fill="#ea8953"/><path d="M97.2,32.905H32.8a4.447,4.447,0,0,0-4.45,4.45v44.9a4.46065,4.46065,0,0,0,1.62,3.44L72.78663,128.5116A63.99753,63.99753,0,0,0,129,65c0-.72772-.03076-1.44806-.05487-2.16992L100.59,34.475A4.426,4.426,0,0,0,97.2,32.905Z" opacity=".1"/><rect width="22.548" height="13.377" x="53.726" y="83.107" fill="#4d5c7d"/><rect width="73.296" height="53.801" x="28.352" y="32.904" fill="#4d5c7d" rx="4.448" ry="4.448"/><path fill="#d5d6db" d="M28.35206,79.50994v2.7472A4.44788,4.44788,0,0,0,32.8,86.705H97.2a4.44788,4.44788,0,0,0,4.44789-4.44789v-2.7472Z"/><rect width="35.118" height="63.183" x="47.441" y="23.8" fill="#27a2db" transform="rotate(90 65 55.391)"/><path fill="#474c5b" d="M81.67181,91.84436H48.32817c-2.5722,0-4.65743,2.35138-4.65743,5.252H86.32925C86.32925,94.19574,84.24409,91.84436,81.67181,91.84436Z"/><path fill="#f7be56" d="M70.29159 50.85049c-.2992-.04289-.6229.48825-.723 1.1863s.0613 1.29878.36051 1.34168.6229-.48819.723-1.1863S70.5908 50.89345 70.29159 50.85049zM59.77644 50.85049c.2992-.04289.6229.48825.723 1.1863s-.06131 1.29878-.36051 1.34168-.6229-.48819-.723-1.1863S59.47723 50.89345 59.77644 50.85049z"/><path fill="#d5d6db" d="M79.273,72.89682c.00613-2.12689.00293-4.3719-.02906-5.52593a7.78469,7.78469,0,0,0-3.57135-5.92834,59.5291,59.5291,0,0,0-6.10952-2.74134L65,60.33544l-4.56307-1.63423a59.5291,59.5291,0,0,0-6.10952,2.74134A7.78486,7.78486,0,0,0,50.756,67.37089c-.032,1.154-.0352,3.399-.02906,5.52593Z"/><rect width="6.989" height="7.424" x="61.505" y="52.912" fill="#f7be56"/><polygon fill="#e56353" points="63.699 72.897 66.359 72.897 65.561 62.266 66.117 61.303 65.559 60.335 64.441 60.335 63.883 61.303 64.438 62.266 63.699 72.897"/><polygon fill="#e1e6e9" points="68.495 57.562 65 60.335 67.356 62.545 69.563 58.701 68.495 57.562"/><polygon fill="#e1e6e9" points="61.505 57.562 65 60.335 62.643 62.545 60.437 58.701 61.505 57.562"/><path fill="#fcd462" d="M69.09526,43.71395a32.37339,32.37339,0,0,0-3.9061-.35345l.00018-.01854-.16739.00914-.1674-.00914.00018.01854a32.373,32.373,0,0,0-3.9061.35345c-.0372.1488-1.56237,2.418-1.56237,2.60394s.81839,5.37667.81839,5.37667a9.82413,9.82413,0,0,0,.52078,3.06756,28.54876,28.54876,0,0,0,2.23195,3.05034c.328.51024,1.34016.52054,2.04258.52075v0l.022,0,.022,0v0c.70242-.00021,1.71455-.01051,2.04257-.52075a28.55014,28.55014,0,0,0,2.23195-3.05034,9.82424,9.82424,0,0,0,.52079-3.06756s.81839-5.19067.81839-5.37667S69.13246,43.86275,69.09526,43.71395Z"/><path fill="#474c5b" d="M71.66308,44.76246c-.2595-2.22421-1.038-1.96472-2.4837-3.78115a2.24113,2.24113,0,0,0-3.00268-.81554c-3.3363-1.26039-5.74586,1.55694-7.15453,3.44752s-.77847,3.59579,0,5.04152a6.20826,6.20826,0,0,1,.67274,2.80868.23272.23272,0,1,0,.46449-.02263,9.006,9.006,0,0,1,.12317-1.97935c.25948-1.86236-.66726-2.21536,0-3.54988a2.30617,2.30617,0,0,1,3.52165-.70433c1.22332.88968,2.44663.14828,3.707-.22242s2.22421,1.075,2.15007,1.77936a7.116,7.116,0,0,0,0,3.22509,2.80543,2.80543,0,0,1,.14361,1.40938.24249.24249,0,0,0,.46624.13107,8.968,8.968,0,0,1,.98417-2.06827C71.8855,48.563,71.92257,46.98666,71.66308,44.76246Z"/></svg>